<svg width="17" height="20" viewBox="0 0 17 20" fill="none" xmlns="http://www.w3.org/2000/svg">
<g id="Group">
<g id="Group 2">
<path id="Path" d="M14.3127 10.7469C14.3225 9.98026 14.5262 9.22863 14.9046 8.56188C15.283 7.89513 15.8239 7.33494 16.477 6.93342C16.0621 6.34088 15.5148 5.85324 14.8785 5.50923C14.2421 5.16523 13.5344 4.97433 12.8114 4.95171C11.2691 4.78983 9.77391 5.87459 8.98799 5.87459C8.18686 5.87459 6.9768 4.96779 5.67378 4.99459C4.83095 5.02183 4.00955 5.26692 3.2896 5.70599C2.56965 6.14505 1.97572 6.76313 1.56566 7.49999C-0.21061 10.5753 1.11433 15.095 2.81584 17.5809C3.66715 18.7982 4.66208 20.1579 5.96393 20.1097C7.23786 20.0568 7.71365 19.2973 9.2514 19.2973C10.7749 19.2973 11.2213 20.1097 12.5495 20.079C13.9165 20.0568 14.7778 18.8563 15.5992 17.6275C16.2109 16.7602 16.6816 15.8016 16.9938 14.7872C16.1996 14.4513 15.5219 13.8891 15.0451 13.1706C14.5683 12.4521 14.3136 11.6092 14.3127 10.7469V10.7469Z" fill="white"/>
<path id="Path 2" d="M11.805 3.3169C12.5504 2.42214 12.9176 1.27209 12.8286 0.110962C11.6899 0.230562 10.6381 0.774794 9.88267 1.63522C9.51332 2.05556 9.23044 2.54457 9.0502 3.0743C8.86996 3.60403 8.79589 4.16409 8.83223 4.72247C9.40179 4.72833 9.96526 4.60488 10.4802 4.36141C10.9951 4.11795 11.4481 3.76081 11.805 3.3169V3.3169Z" fill="white"/>
</g>
</g>
</svg>
