<svg width="93" height="13" viewBox="0 0 93 13" fill="none" xmlns="http://www.w3.org/2000/svg">
<g id="Dealscount">
<path id="Vector" d="M90.6807 10.4512C90.9722 10.4512 91.2389 10.4209 91.4808 10.3604C91.7228 10.2999 91.9758 10.2229 92.2397 10.1294V12.4803C91.8878 12.6343 91.5138 12.758 91.1179 12.8515C90.7274 12.9505 90.227 13 89.6166 13C89.0117 13 88.4783 12.9065 88.0164 12.7196C87.5544 12.5271 87.1942 12.1971 86.9358 11.7297C86.6828 11.2568 86.5563 10.5996 86.5563 9.75826V5.9061H85.4263V4.59455L86.8615 3.57996L87.6947 1.61676H89.8063V3.48922L92.0995 3.48922V5.9061H89.8063V9.54379C89.8063 9.84624 89.8833 10.0745 90.0373 10.2284C90.1913 10.3769 90.4058 10.4512 90.6807 10.4512Z" fill="black"/>
<path id="Vector_2" d="M81.1403 3.32425C82.1027 3.32425 82.8891 3.59646 83.4995 4.14087C84.1099 4.68529 84.4151 5.55691 84.4151 6.75572V12.835H81.1898V7.73732C81.1898 7.11592 81.0991 6.64849 80.9176 6.33504C80.7417 6.01609 80.4557 5.85661 80.0598 5.85661C79.4494 5.85661 79.0397 6.10682 78.8307 6.60724C78.6217 7.10217 78.5173 7.81431 78.5173 8.74367V12.835H75.292V3.48922H77.7254L78.1626 4.72653H78.2863C78.4843 4.42958 78.7207 4.17662 78.9957 3.96765C79.2706 3.75868 79.5868 3.59921 79.9443 3.48922C80.3017 3.37924 80.7004 3.32425 81.1403 3.32425Z" fill="black"/>
<path id="Vector_3" d="M73.5714 3.48923V12.835H71.1381L70.7339 11.672H70.5442C70.3517 11.9854 70.107 12.2411 69.81 12.4391C69.5186 12.6316 69.1941 12.7718 68.8367 12.8598C68.4792 12.9533 68.108 13 67.7231 13C67.1127 13 66.56 12.8818 66.0651 12.6453C65.5757 12.4089 65.1852 12.0377 64.8938 11.5317C64.6078 11.0258 64.4648 10.3742 64.4648 9.57679V3.48923H67.6901V8.59519C67.6901 9.2001 67.7753 9.66203 67.9458 9.98098C68.1218 10.2944 68.4077 10.4512 68.8037 10.4512C69.2106 10.4512 69.5241 10.3412 69.744 10.1212C69.9695 9.90124 70.1262 9.57679 70.2142 9.14786C70.3022 8.71892 70.3462 8.1965 70.3462 7.5806V3.48923H73.5714Z" fill="black"/>
<path id="Vector_4" d="M63.1408 8.14151C63.1408 8.92239 63.0336 9.61528 62.8191 10.2202C62.6047 10.8251 62.294 11.3338 61.887 11.7462C61.4801 12.1586 60.9879 12.4721 60.4105 12.6866C59.8331 12.8955 59.1814 13 58.4556 13C57.7792 13 57.1578 12.8955 56.5913 12.6866C56.0304 12.4721 55.541 12.1586 55.1231 11.7462C54.7051 11.3338 54.3807 10.8251 54.1497 10.2202C53.9243 9.61528 53.8115 8.92239 53.8115 8.14151C53.8115 7.10767 53.9985 6.2333 54.3724 5.51841C54.7519 4.80352 55.2908 4.25911 55.9892 3.88516C56.6931 3.51122 57.5317 3.32425 58.5051 3.32425C59.4014 3.32425 60.1988 3.51122 60.8972 3.88516C61.5956 4.25911 62.1427 4.80352 62.5387 5.51841C62.9401 6.2333 63.1408 7.10767 63.1408 8.14151ZM57.0863 8.14151C57.0863 8.67493 57.133 9.12586 57.2265 9.4943C57.32 9.85724 57.4685 10.135 57.6719 10.3274C57.8809 10.5144 58.1531 10.6079 58.4886 10.6079C58.824 10.6079 59.0907 10.5144 59.2887 10.3274C59.4866 10.135 59.6296 9.85724 59.7176 9.4943C59.8111 9.12586 59.8578 8.67493 59.8578 8.14151C59.8578 7.60809 59.8111 7.16266 59.7176 6.80521C59.6296 6.44777 59.4839 6.17831 59.2804 5.99684C59.0825 5.81537 58.813 5.72463 58.4721 5.72463C57.9826 5.72463 57.6279 5.9281 57.408 6.33504C57.1935 6.74197 57.0863 7.34413 57.0863 8.14151Z" fill="black"/>
<path id="Vector_5" d="M49.872 13C48.9261 13 48.104 12.8323 47.4056 12.4968C46.7072 12.1559 46.1655 11.6335 45.7806 10.9296C45.4011 10.2202 45.2114 9.31283 45.2114 8.2075C45.2114 7.07467 45.4231 6.14807 45.8466 5.42768C46.2755 4.70729 46.8612 4.17662 47.6036 3.83567C48.3459 3.49472 49.1873 3.32425 50.1277 3.32425C50.6996 3.32425 51.2412 3.38749 51.7527 3.51397C52.2696 3.64045 52.748 3.81367 53.1879 4.03364L52.2393 6.41752C51.8544 6.24705 51.4942 6.11232 51.1588 6.01334C50.8288 5.90885 50.4851 5.85661 50.1277 5.85661C49.8032 5.85661 49.5173 5.94185 49.2698 6.11232C49.0223 6.28279 48.8299 6.54125 48.6924 6.8877C48.5549 7.22865 48.4862 7.66308 48.4862 8.191C48.4862 8.72992 48.5549 9.16435 48.6924 9.4943C48.8354 9.82425 49.0306 10.0635 49.2781 10.2119C49.531 10.3604 49.8197 10.4347 50.1442 10.4347C50.6116 10.4347 51.0763 10.3632 51.5382 10.2202C52.0056 10.0717 52.4483 9.86824 52.8662 9.60978V12.1751C52.4813 12.4281 52.0469 12.6288 51.5629 12.7773C51.079 12.9258 50.5154 13 49.872 13Z" fill="black"/>
<path id="Vector_6" d="M44.3242 9.96448C44.3242 10.5584 44.1922 11.0836 43.9283 11.54C43.6643 11.9964 43.2409 12.3539 42.658 12.6123C42.0806 12.8708 41.3189 13 40.3731 13C39.7077 13 39.111 12.9643 38.5831 12.8928C38.0607 12.8213 37.53 12.6838 36.9911 12.4803V9.89849C37.5795 10.1679 38.1789 10.3632 38.7893 10.4841C39.3997 10.5996 39.8809 10.6574 40.2329 10.6574C40.5958 10.6574 40.8598 10.6189 41.0247 10.5419C41.1952 10.4594 41.2804 10.3384 41.2804 10.1789C41.2804 10.0415 41.2227 9.92598 41.1072 9.8325C40.9972 9.73351 40.7965 9.62078 40.5051 9.4943C40.2191 9.36782 39.8149 9.19735 39.2925 8.98288C38.7756 8.76841 38.3439 8.5347 37.9975 8.28174C37.6565 8.02878 37.4008 7.72632 37.2303 7.37438C37.0598 7.02243 36.9746 6.59075 36.9746 6.07933C36.9746 5.16647 37.3266 4.47907 38.0304 4.01714C38.7343 3.55521 39.6664 3.32425 40.8268 3.32425C41.4427 3.32425 42.0228 3.39299 42.5672 3.53047C43.1117 3.66245 43.6753 3.85767 44.2582 4.11613L43.3756 6.19481C42.9137 5.98584 42.4463 5.81812 41.9733 5.69164C41.5004 5.56516 41.1237 5.50191 40.8433 5.50191C40.5903 5.50191 40.3951 5.53491 40.2576 5.6009C40.1201 5.66689 40.0514 5.76312 40.0514 5.8896C40.0514 6.00509 40.0981 6.10682 40.1916 6.19481C40.2906 6.28279 40.4748 6.38453 40.7443 6.50001C41.0137 6.61549 41.4069 6.77772 41.9238 6.98669C42.4683 7.20665 42.9164 7.44312 43.2684 7.69608C43.6258 7.94354 43.8898 8.24599 44.0603 8.60344C44.2362 8.96088 44.3242 9.41456 44.3242 9.96448Z" fill="black"/>
<path id="Vector_7" d="M35.6501 12.8351H32.4248V3.05176e-05L35.6501 3.05176e-05V12.8351Z" fill="black"/>
<path id="Vector_8" d="M26.968 3.32425C28.1504 3.32425 29.0742 3.61845 29.7396 4.20686C30.405 4.78977 30.7377 5.6229 30.7377 6.70623V12.835H28.5023L27.8836 11.5977H27.8177C27.5537 11.9277 27.2815 12.1971 27.001 12.4061C26.7261 12.6096 26.4099 12.758 26.0524 12.8515C25.695 12.9505 25.2578 13 24.7409 13C24.202 13 23.718 12.89 23.2891 12.6701C22.8602 12.4501 22.522 12.1174 22.2745 11.672C22.0271 11.2265 21.9033 10.6629 21.9033 9.98098C21.9033 8.98013 22.2498 8.23774 22.9427 7.75382C23.6356 7.26989 24.6391 6.99768 25.9534 6.93719L27.5125 6.8877V6.75572C27.5125 6.33779 27.408 6.04083 27.199 5.86486C26.9955 5.68889 26.7206 5.6009 26.3741 5.6009C26.0057 5.6009 25.5933 5.66689 25.1368 5.79887C24.6859 5.92535 24.2322 6.09032 23.7758 6.29379L22.8437 4.16562C23.3826 3.89066 23.993 3.68169 24.6749 3.53872C25.3568 3.39574 26.1212 3.32425 26.968 3.32425ZM27.529 8.66118L26.7866 8.69417C26.1927 8.71617 25.7747 8.82065 25.5328 9.00763C25.2963 9.1891 25.1781 9.45031 25.1781 9.79125C25.1781 10.1102 25.2633 10.3467 25.4338 10.5006C25.6043 10.6491 25.8297 10.7234 26.1102 10.7234C26.5006 10.7234 26.8333 10.5996 27.1083 10.3522C27.3887 10.1047 27.529 9.78301 27.529 9.38707V8.66118Z" fill="black"/>
<path id="Vector_9" d="M16.677 3.32425C17.5843 3.32425 18.3679 3.48373 19.0278 3.80268C19.6877 4.11613 20.1964 4.58906 20.5539 5.22146C20.9113 5.85386 21.09 6.64574 21.09 7.59709V9.03237H15.3242C15.3517 9.5218 15.5331 9.92323 15.8686 10.2367C16.2095 10.5501 16.71 10.7069 17.3699 10.7069C17.9528 10.7069 18.4862 10.6491 18.9701 10.5336C19.4595 10.4182 19.9627 10.2394 20.4796 9.99747V12.3154C20.0287 12.5518 19.5365 12.7251 19.0031 12.835C18.4697 12.945 17.796 13 16.9822 13C16.0418 13 15.2004 12.8323 14.458 12.4968C13.7157 12.1614 13.13 11.6417 12.7011 10.9378C12.2776 10.2339 12.0659 9.32933 12.0659 8.224C12.0659 7.10217 12.2584 6.18106 12.6433 5.46067C13.0283 4.73478 13.5672 4.19862 14.2601 3.85217C14.953 3.50022 15.7586 3.32425 16.677 3.32425ZM16.7924 5.51841C16.413 5.51841 16.094 5.63939 15.8356 5.88136C15.5826 6.11782 15.4341 6.49176 15.3902 7.00318H18.1617C18.1562 6.72823 18.1012 6.47801 17.9968 6.25255C17.8923 6.02708 17.7383 5.84836 17.5348 5.71638C17.3369 5.5844 17.0894 5.51841 16.7924 5.51841Z" fill="black"/>
<path id="Vector_10" d="M10.9974 6.5495C10.9974 7.95179 10.7362 9.11761 10.2138 10.047C9.69137 10.9763 8.95448 11.6747 8.00313 12.1421C7.05727 12.6041 5.9437 12.835 4.66239 12.835H0.760742L0.760742 0.775391L4.9346 0.775391C6.2324 0.775391 7.33223 0.998106 8.23409 1.44354C9.13595 1.88897 9.8206 2.54062 10.288 3.39849C10.761 4.25635 10.9974 5.30669 10.9974 6.5495ZM7.61544 6.66498C7.61544 5.9336 7.51645 5.32869 7.31848 4.85026C7.12601 4.36634 6.83456 4.00614 6.44412 3.76968C6.05368 3.52772 5.5615 3.40674 4.9676 3.40674L4.01899 3.40674V10.1624H4.74488C5.73473 10.1624 6.46062 9.87649 6.92254 9.30458C7.38447 8.72717 7.61544 7.8473 7.61544 6.66498Z" fill="black"/>
</g>
</svg>
